<svg xmlns="http://www.w3.org/2000/svg" width="88.46" height="48.92" viewBox="740.54 80.04 88.46 48.92"><g data-name="стрелка копия"><path d="M746 103h81a2 2 0 0 1 2 2 2 2 0 0 1-2 2h-81a2 2 0 0 1-2-2 2 2 0 0 1 2-2Z" stroke-miterlimit="100" stroke-width="4" stroke="rgba(231, 221, 207, 1)" fill="transparent" data-name="Прямоугольник 12"/><path d="m765.874 83.454-21.92 21.92a2 2 0 0 1-2.828 0 1.991 1.991 0 0 1-.547-1.02 1.999 1.999 0 0 1 .45-1.705 2.03 2.03 0 0 1 .097-.103l21.92-21.92a2 2 0 0 1 2.725-.097 2.03 2.03 0 0 1 .103.096 1.99 1.99 0 0 1 .547 1.02 1.999 1.999 0 0 1-.45 1.706 2.03 2.03 0 0 1-.097.103Z" stroke-miterlimit="100" stroke-width="4" stroke="rgba(231, 221, 207, 1)" fill="transparent" data-name="Прямоугольник 12 копия"/><path d="m763.046 128.374-21.92-21.92a1.991 1.991 0 0 1-.547-1.02 1.999 1.999 0 0 1 .45-1.705 2.03 2.03 0 0 1 .097-.104 1.99 1.99 0 0 1 1.026-.547 2 2 0 0 1 1.699.451 2.029 2.029 0 0 1 .103.096l21.92 21.92a1.99 1.99 0 0 1 .548 1.027 1.998 1.998 0 0 1-.451 1.699 2.028 2.028 0 0 1-.097.103 2 2 0 0 1-2.725.096 2.03 2.03 0 0 1-.103-.096Z" stroke-miterlimit="100" stroke-width="4" stroke="rgba(231, 221, 207, 1)" fill="transparent" data-name="Прямоугольник 12 копия 2"/></g></svg>